STARTFONT 2.1
FONT -FontForge-PyGameMono-Medium-R-Normal--19-180-75-75-M-190-ISO10646-1
SIZE 18 75 75
FONTBOUNDINGBOX 15 17 0 0
COMMENT "Generated by fontforge, http://fontforge.sourceforge.net"
COMMENT "Created by Lenard Lindstrom,,, with FontForge 2.0 (http://fontforge.sf.net)"
STARTPROPERTIES 29
FOUNDRY "FontForge"
FAMILY_NAME "PyGameMono"
WEIGHT_NAME "Medium"
SLANT "R"
SETWIDTH_NAME "Normal"
ADD_STYLE_NAME ""
PIXEL_SIZE 19
POINT_SIZE 180
RESOLUTION_X 75
RESOLUTION_Y 75
SPACING "M"
AVERAGE_WIDTH 190
CHARSET_REGISTRY "ISO10646"
CHARSET_ENCODING "1"
FONTNAME_REGISTRY ""
CHARSET_COLLECTIONS "ISO10646-1"
FONT_NAME "PyGameMono"
FACE_NAME "PyGame Mono"
FONT_VERSION "001.000"
FONT_ASCENT 15
FONT_DESCENT 4
UNDERLINE_POSITION -2
UNDERLINE_THICKNESS 1
RAW_ASCENT 800
RAW_DESCENT 200
RELATIVE_WEIGHT 50
RELATIVE_SETWIDTH 50
FIGURE_WIDTH -1
AVG_UPPERCASE_WIDTH 190
ENDPROPERTIES
CHARS 5
STARTCHAR .notdef
ENCODING 0
SWIDTH 1000 0
DWIDTH 19 0
BBX 15 15 0 0
BITMAP
FFFE
FFFE
FC7E
F01E
E00E
C006
C006
C006
C006
C006
E00E
F01E
FC7E
FFFE
FFFE
ENDCHAR
STARTCHAR A
ENCODING 65
SWIDTH 1000 0
DWIDTH 19 0
BBX 15 17 0 0
BITMAP
0FE0
3FF8
783C
F01E
E00E
E00E
F01E
F83E
FFFE
FFFE
FC7E
701C
701C
600C
600C
4004
4004
ENDCHAR
STARTCHAR B
ENCODING 66
SWIDTH 1000 0
DWIDTH 19 0
BBX 15 15 0 0
BITMAP
FFF8
7FFC
780E
3006
3006
380E
3FF8
3FF8
3FF8
380E
3006
3006
7C1E
7FFC
FFF8
ENDCHAR
STARTCHAR C
ENCODING 67
SWIDTH 1000 0
DWIDTH 19 0
BBX 15 15 0 0
BITMAP
03E0
0FF8
3C1C
7806
7000
E000
E000
E000
E000
E000
7000
7806
3C1C
0FF8
03E0
ENDCHAR
STARTCHAR u13079
ENCODING 77945
SWIDTH 1000 0
DWIDTH 19 0
BBX 15 7 0 4
BITMAP
0FE0
3838
638C
E38E
638C
3838
0FE0
ENDCHAR
ENDFONT
