STARTFONT 2.1
FONT -FontForge-PyGameMono-Medium-R-Normal--25-180-100-100-M-250-ISO10646-1
SIZE 18 100 100
FONTBOUNDINGBOX 21 22 0 0
COMMENT "Generated by fontforge, http://fontforge.sourceforge.net"
COMMENT "Created by Lenard Lindstrom,,, with FontForge 2.0 (http://fontforge.sf.net)"
STARTPROPERTIES 29
FOUNDRY "FontForge"
FAMILY_NAME "PyGameMono"
WEIGHT_NAME "Medium"
SLANT "R"
SETWIDTH_NAME "Normal"
ADD_STYLE_NAME ""
PIXEL_SIZE 25
POINT_SIZE 180
RESOLUTION_X 100
RESOLUTION_Y 100
SPACING "M"
AVERAGE_WIDTH 250
CHARSET_REGISTRY "ISO10646"
CHARSET_ENCODING "1"
FONTNAME_REGISTRY ""
CHARSET_COLLECTIONS "ISO10646-1"
FONT_NAME "PyGameMono"
FACE_NAME "PyGame Mono"
FONT_VERSION "001.000"
FONT_ASCENT 20
FONT_DESCENT 5
UNDERLINE_POSITION -2
UNDERLINE_THICKNESS 2
RAW_ASCENT 800
RAW_DESCENT 200
RELATIVE_WEIGHT 50
RELATIVE_SETWIDTH 50
FIGURE_WIDTH -1
AVG_UPPERCASE_WIDTH 250
ENDPROPERTIES
CHARS 5
STARTCHAR .notdef
ENCODING 0
SWIDTH 1000 0
DWIDTH 25 0
BBX 20 20 0 0
BITMAP
FFFFF0
FFFFF0
FE07F0
F801F0
F000F0
E00070
E00070
C00030
C00030
C00030
C00030
C00030
C00030
E00070
E00070
F000F0
F801F0
FE07F0
FFFFF0
FFFFF0
ENDCHAR
STARTCHAR A
ENCODING 65
SWIDTH 1000 0
DWIDTH 25 0
BBX 20 21 0 1
BITMAP
03FC00
1FFF80
3FFFC0
7C03E0
F000F0
E00070
E00070
F000F0
FC03F0
FFFFF0
FFFFF0
FFFFF0
FF0FF0
7C03F0
7801E0
7800E0
7000E0
700060
600060
200040
200040
ENDCHAR
STARTCHAR B
ENCODING 66
SWIDTH 1000 0
DWIDTH 25 0
BBX 18 20 1 0
BITMAP
FFFE00
FFFF80
7E0780
7801C0
7000C0
3000C0
3000C0
3801C0
3E0780
3FFF00
3FFF00
3E0780
380180
3000C0
3000C0
3000C0
7801C0
7E07C0
FFFF80
FFFE00
ENDCHAR
STARTCHAR C
ENCODING 67
SWIDTH 1000 0
DWIDTH 25 0
BBX 20 20 0 0
BITMAP
00FC00
03FF00
0FFF80
1F03E0
3E0070
7C0010
780000
F80000
F00000
F00000
F00000
F00000
F80000
780000
7C0010
3E0070
1F01E0
0FFFC0
03FF80
00FE00
ENDCHAR
STARTCHAR u13079
ENCODING 77945
SWIDTH 1000 0
DWIDTH 25 0
BBX 21 10 0 5
BITMAP
03FC00
0FFF80
1E73C0
78F8F0
F0F878
70F870
3870E0
1E03C0
0FFF80
03FC00
ENDCHAR
ENDFONT
